<svg width="50" height="50" viewBox="0 0 50 50" fill="none" xmlns="http://www.w3.org/2000/svg">
<path d="M4.53516 20.3613C5.48398 19.7609 6.57285 19.2026 7.79668 18.6948C12.4157 16.7782 18.5253 15.7227 25 15.7227C31.4747 15.7227 37.5842 16.7782 42.2032 18.6948C43.4272 19.2026 44.516 19.7609 45.4648 20.3613C48.4139 18.4953 50 20.2148 50 13.7695C50 10.5303 47.2311 7.59736 42.2032 5.51123C37.5842 3.59463 31.4747 2.53906 25 2.53906C18.5253 2.53906 12.4157 3.59463 7.79668 5.51123C2.76894 7.59736 0 10.5303 0 13.7695C0 21.0938 1.58613 18.4953 4.53516 20.3613Z" fill="#FD4B2D"/>
<path d="M42.2032 5.51123C37.5842 3.59463 31.4747 2.53906 25 2.53906V15.7227C31.4747 15.7227 37.5842 16.7782 42.2032 18.6948C43.4271 19.2026 44.516 19.7609 45.4648 20.3613C48.4139 18.4953 50 20.2148 50 13.7695C50 10.5303 47.2311 7.59736 42.2032 5.51123Z" fill="#E8130F"/>
<path d="M42.2032 22.0278C37.5842 23.9444 31.4747 25 25 25C18.5253 25 12.4157 23.9444 7.79668 22.0278C2.76894 19.9417 0 17.0088 0 13.7695V25.4883C0 28.7275 2.76894 31.6604 7.79668 33.7466C12.4157 35.6632 18.5253 36.7188 25 36.7188C31.4747 36.7188 37.5842 35.6632 42.2032 33.7466C47.2311 31.6604 50 28.7275 50 25.4883V13.7695C50 17.0088 47.2311 19.9417 42.2032 22.0278Z" fill="#FF6849"/>
<path d="M42.2032 22.0278C37.5842 23.9444 31.4747 25 25 25C21.764 25 19.1406 27.6233 19.1406 30.8594C19.1406 34.0954 21.764 36.7188 25 36.7188C31.4747 36.7188 37.5842 35.6632 42.2032 33.7466C47.2311 31.6604 50 28.7275 50 25.4883V13.7695C50 17.0088 47.2311 19.9417 42.2032 22.0278Z" fill="#FD4B2D"/>
<path d="M25 47.4609C20.6922 47.4609 17.1875 43.9563 17.1875 39.6484C17.1875 35.3406 20.6922 31.8359 25 31.8359C29.3078 31.8359 32.8125 35.3406 32.8125 39.6484C32.8125 43.9563 29.3078 47.4609 25 47.4609Z" fill="#FFEA84"/>
<path d="M25 31.8359V47.4609C29.3078 47.4609 32.8125 43.9563 32.8125 39.6484C32.8125 35.3406 29.3078 31.8359 25 31.8359Z" fill="#FFDC40"/>
<path d="M26.4648 39.6484H23.5352V45.9961H26.4648V39.6484Z" fill="#FFAB15"/>
</svg>
