<svg width="60" height="60" viewBox="0 0 60 60" fill="none" xmlns="http://www.w3.org/2000/svg">
<path d="M30 39.956L28.75 51.4226L30 60C35.1592 60 39.3566 55.5041 39.3566 49.978C39.3566 44.4519 35.1594 39.956 30 39.956Z" fill="#F7F0EB"/>
<path d="M20.6436 49.978C20.6436 55.5042 24.8409 60 30.0001 60V39.9561C24.8409 39.9561 20.6436 44.4519 20.6436 49.978Z" fill="#FFFBF5"/>
<path d="M29.9999 0L28.7499 27.3222L29.9999 50.0791C31.9775 53.374 35.4302 55.5606 39.351 55.5606C44.4042 55.5606 48.8231 51.9044 50.0995 46.668C50.2803 45.9499 53.8631 31.6348 53.8631 25.5605C53.8631 11.4664 43.1582 0 29.9999 0Z" fill="#EFE2DD"/>
<path d="M12.4999 23.3054H30V0C23.5349 0 17.6632 2.76928 13.3614 7.25709C13.3579 7.30015 12.4999 23.3054 12.4999 23.3054Z" fill="#F7F0EB"/>
<path d="M29.9999 13.9112L28.7499 23.3074L29.9999 34.7582C31.9605 29.8582 33.3202 25.6108 33.3202 22.1338C33.3203 19.5446 32.7353 16.0563 29.9999 13.9112Z" fill="#EBB65B"/>
<path d="M29.7251 13.7053C26.9402 11.7167 24.1072 12.5796 21.6077 13.3409C18.6613 14.2383 16.9018 14.6463 14.9929 12.6016C13.0965 10.5704 13.3579 7.30001 13.3614 7.25696C8.90775 11.9031 6.13672 18.3911 6.13672 25.5604C6.13672 31.632 9.71659 45.9374 9.9001 46.667C11.1763 51.9039 15.5953 55.5604 20.6489 55.5604C24.5696 55.5604 28.0223 53.3738 29.9999 50.0789V34.7584V13.9112C29.9107 13.8411 29.8191 13.7725 29.7251 13.7053Z" fill="#FFC663"/>
<path d="M18.5711 22.6007H22.0867V29.9999H18.5711V22.6007Z" fill="#32393F"/>
<path d="M37.9135 22.6009H41.4291V30.0001H37.9135V22.6009Z" fill="#262B2F"/>
<path d="M31.2563 34.4396H30L28.75 39.3724L30 44.7985L33.3742 42.63C34.6142 41.8332 35.3729 40.3978 35.3729 38.849C35.3729 36.4137 33.5299 34.4396 31.2563 34.4396Z" fill="#744727"/>
<path d="M28.7438 34.4396C26.4702 34.4396 24.6272 36.4137 24.6272 38.849C24.6272 40.3978 25.3859 41.8332 26.6258 42.63L30 44.7985V34.4396H28.7438Z" fill="#8D562F"/>
<path d="M13.3622 7.2551C12.1484 6.51401 9.38488 6.29083 7.49357 6.84903C5.43223 7.45744 3.56753 8.88602 2.10197 10.979L2.0851 11.003C0.624932 13.0884 -0.110424 15.6694 0.0134436 18.2724L0.6663 38.3114L0.667589 38.3447C0.895286 42.9799 4.46824 46.6109 8.80175 46.6109H9.96097L9.46761 44.307C9.44874 44.219 7.67088 35.3912 9.84613 24.1156C10.8984 18.6611 13.7109 14.0782 13.3622 7.2551Z" fill="#C97840"/>
<path d="M46.6379 7.25513C47.8517 6.51404 50.6154 6.29086 52.5065 6.84906C54.5679 7.45747 56.4326 8.88605 57.8981 10.979L57.9149 11.003C59.3752 13.0884 60.1104 15.6694 59.9866 18.2724L59.3337 38.3114L59.3324 38.3447C59.1047 42.9799 55.5318 46.6109 51.1983 46.6109H50.039L50.5324 44.307C50.5513 44.2191 52.3291 35.3913 50.1539 24.1156C49.1018 18.6612 46.2892 14.0782 46.6379 7.25513Z" fill="#AE632C"/>
</svg>
